<svg width="182" height="161" viewBox="0 0 182 161" fill="none" xmlns="http://www.w3.org/2000/svg">
    <path d="M88.3307 158.173C135.631 162.872 180.211 158.173 181.039 148.003C181.039 144.051 141.755 140.847 93.2972 140.847C44.8389 140.847 4.13672 144.051 4.13672 148.003C4.13672 151.956 47.8892 154.155 88.3307 158.173Z" fill="#3A4883" />
    <path d="M32.6348 51.2287L83.0761 22.9438L133.517 51.2287V140.483H32.6348V51.2287Z" fill="url(#paint0_linear_13705_25297)" />
    <rect x="92.3457" y="70.7144" width="31.7419" height="28.9134" rx="1.11568" fill="#262F63" />
    <rect x="94.5449" y="72.5991" width="13.1996" height="26.0849" fill="url(#paint1_linear_13705_25297)" />
    <rect x="109.314" y="72.5991" width="12.8853" height="26.0849" fill="url(#paint2_linear_13705_25297)" />
    <path d="M35.7773 24.5156H54.0054V45.0428L35.7773 51.2291V24.5156Z" fill="#F1BA6A" />
    <path opacity="0.2" d="M32.6348 55.7842C32.6348 55.4926 32.7866 55.222 33.0355 55.07L82.6478 24.7771C82.9114 24.6161 83.2423 24.6135 83.5084 24.7702L133.517 54.2147V61.2859L83.4841 33.5416C83.2305 33.401 82.9221 33.4017 82.6691 33.5436L32.6348 61.6002V55.7842Z" fill="black" />
    <rect x="91.0879" y="98.3701" width="34.2561" height="2.82848" rx="1.11568" fill="#262F63" />
    <path d="M26.1241 54.1583C25.9001 53.7551 26.0446 53.2466 26.4473 53.0215L82.6659 21.6007C82.9196 21.4589 83.2287 21.4589 83.4824 21.6007L139.701 53.0215C140.104 53.2466 140.248 53.7551 140.024 54.1583L137.686 58.3667C137.465 58.7657 136.964 58.9135 136.561 58.6986L83.4679 30.3823C83.2218 30.251 82.9265 30.251 82.6804 30.3823L29.5873 58.6986C29.1845 58.9135 28.6838 58.7657 28.4621 58.3667L26.1241 54.1583Z" fill="url(#paint3_linear_13705_25297)" />
    <rect x="24.1484" y="133.57" width="117.854" height="8.79973" fill="#262F63" />
    <rect x="40.8027" y="81.7139" width="38.3417" height="51.8555" fill="#262F63" />
    <rect x="33.5762" y="22.9438" width="22.3136" height="5.65697" fill="#EDAF57" />
    <rect x="43.6309" y="88.001" width="32.3704" height="9.42828" fill="#323C75" />
    <rect x="43.6309" y="98.998" width="32.3704" height="9.42828" fill="#323C75" />
    <rect x="43.6309" y="110" width="32.3704" height="9.42828" fill="#323C75" />
    <rect x="43.6309" y="121" width="32.3704" height="9.42828" fill="#323C75" />
    <circle cx="74.1175" cy="109.685" r="2.82848" fill="#EEB25C" />
    <path fill-rule="evenodd" clip-rule="evenodd" d="M170.462 26.0503L148.25 35.7844L149.367 38.3341C149.371 38.3463 149.376 38.3583 149.381 38.37C149.867 39.4804 155.234 38.2016 161.368 35.5136C167.501 32.8257 172.079 29.7467 171.593 28.6361L171.595 28.6354L170.462 26.0503Z" fill="#E8A341" />
    <ellipse cx="159.356" cy="30.9165" rx="12.1258" ry="2.19518" transform="rotate(-23.6645 159.356 30.9165)" fill="#F3BF75" />
    <ellipse cx="159.359" cy="30.9158" rx="10.4532" ry="1.88158" transform="rotate(-23.6645 159.359 30.9158)" fill="#E8A341" />
    <ellipse cx="159.483" cy="31.2027" rx="10.0351" ry="1.56799" transform="rotate(-23.6645 159.483 31.2027)" fill="#F3BF75" />
    <path fill-rule="evenodd" clip-rule="evenodd" d="M154.58 31.308L134.402 17.8545L132.837 20.2028L132.838 20.2039C132.168 21.2135 136.139 25.0421 141.71 28.7565C147.282 32.4716 152.344 34.6655 153.016 33.6568C153.024 33.6455 153.031 33.6338 153.037 33.6217L154.58 31.308Z" fill="#E8A341" />
    <ellipse cx="144.496" cy="24.5815" rx="12.1258" ry="2.19518" transform="rotate(33.6935 144.496 24.5815)" fill="#F3BF75" />
    <ellipse cx="144.493" cy="24.5822" rx="10.4532" ry="1.88158" transform="rotate(33.6935 144.493 24.5822)" fill="#E8A341" />
    <ellipse cx="144.319" cy="24.8437" rx="10.0351" ry="1.56799" transform="rotate(33.6935 144.319 24.8437)" fill="#F3BF75" />
    <path fill-rule="evenodd" clip-rule="evenodd" d="M108.344 19.3784C108.278 19.3357 108.22 19.2856 108.169 19.228C107.034 17.9384 110.126 13.3604 115.076 9.00286C120.004 4.66441 124.915 2.18007 126.079 3.43105L126.111 3.40232L128.793 6.43747L110.861 22.1977L108.323 19.3968L108.344 19.3784Z" fill="#F3BF75" />
    <ellipse cx="119.713" cy="14.2335" rx="11.9405" ry="3.11102" transform="rotate(-41.3598 119.713 14.2335)" fill="#E8A341" />
    <path fill-rule="evenodd" clip-rule="evenodd" d="M27.6226 95.8883C27.6718 95.8275 27.7118 95.7619 27.7423 95.6915C28.4252 94.1149 24.073 90.7122 18.0216 88.0914C11.9967 85.4822 6.55893 84.6317 5.83745 86.1803L5.79934 86.1633L4.18249 89.8772L26.0975 99.3465L27.6489 95.9L27.6226 95.8883Z" fill="#F3BF75" />
    <ellipse rx="11.9405" ry="3.11102" transform="matrix(-0.91764 -0.397412 -0.397412 0.91764 15.2187 94.5006)" fill="#E8A341" />
    <rect x="16.6016" y="130.426" width="27.9706" height="4.71414" rx="0.836757" fill="url(#paint4_linear_13705_25297)" />
    <g opacity="0.4">
        <path d="M114.059 29.4373C114.496 29.4373 114.933 29.4373 115.37 29.4373C116.165 29.4373 116.96 29.4373 117.755 29.4373C118.137 29.4373 118.519 29.4373 118.901 29.4373C119.281 29.4373 119.597 29.1206 119.597 28.7411C119.597 28.3616 119.281 28.0449 118.901 28.0449C118.464 28.0449 118.027 28.0449 117.59 28.0449C116.796 28.0449 116.001 28.0449 115.206 28.0449C114.824 28.0449 114.442 28.0449 114.059 28.0449C113.68 28.0449 113.363 28.3616 113.363 28.7411C113.363 29.1206 113.68 29.4373 114.059 29.4373Z" fill="#E0E7FC" />
    </g>
    <rect x="15.0293" y="135.141" width="27.9706" height="4.71414" rx="0.836757" fill="url(#paint5_linear_13705_25297)" />
    <rect x="16.6016" y="139.854" width="27.9706" height="4.71414" rx="0.836757" fill="url(#paint6_linear_13705_25297)" />
    <rect opacity="0.2" x="92.3457" y="59.7129" width="73.8549" height="77.6262" rx="4.46271" fill="black" />
    <path d="M98.6309 61.033C98.6309 58.5683 100.629 56.5703 103.094 56.5703H168.023C170.488 56.5703 172.486 58.5683 172.486 61.033V149.219C172.486 151.684 170.488 153.682 168.023 153.682H103.094C100.629 153.682 98.6309 151.684 98.6309 149.219V61.033Z" fill="url(#paint7_linear_13705_25297)" />
    <rect x="103.34" y="62.2275" width="64.4266" height="13.1996" fill="#EBF2FC" />
    <path d="M119.465 69.6713C119.326 69.4095 119.136 69.1874 118.909 69.0223C118.688 68.8612 118.448 68.7363 118.196 68.6514C118.057 68.6027 117.889 68.5524 117.698 68.4943C117.543 68.4456 117.375 68.4 117.115 68.3372C116.846 68.2728 116.582 68.1846 116.325 68.0732C116.199 68.0152 116.088 67.9235 116.001 67.806C115.93 67.7011 115.895 67.5704 115.902 67.4383C115.902 67.4179 115.902 67.399 115.902 67.3786C115.908 67.2672 115.942 67.1601 116.001 67.0706C116.105 66.9272 116.242 66.8186 116.397 66.7563C116.652 66.6591 116.92 66.6154 117.189 66.6275C117.397 66.6275 117.605 66.6582 117.806 66.7186C117.939 66.7614 118.065 66.8306 118.177 66.9229C118.248 66.9807 118.309 67.0532 118.356 67.1366C118.517 67.4183 118.887 67.4978 119.149 67.3069L119.177 67.287C119.414 67.1147 119.483 66.7916 119.338 66.5372L119.291 66.4562C119.169 66.2405 119.012 66.0528 118.829 65.9031C118.612 65.7249 118.369 65.5913 118.112 65.5087C118.011 65.4766 117.91 65.4504 117.807 65.4301V64.6691C117.807 64.3621 117.558 64.1133 117.251 64.1133C116.945 64.1133 116.696 64.3621 116.696 64.6691V65.4034C116.473 65.4352 116.254 65.492 116.041 65.5731C115.694 65.7082 115.386 65.9478 115.15 66.2661L115.135 66.2865C114.921 66.5939 114.799 66.9704 114.788 67.3613C114.765 67.792 114.878 68.2178 115.109 68.5619L115.127 68.5886C115.34 68.8828 115.616 69.1097 115.93 69.247C116.241 69.38 116.561 69.485 116.886 69.5613C117.124 69.621 117.275 69.6618 117.411 69.7058H117.427C117.603 69.7561 117.752 69.8017 117.881 69.8457C118.032 69.8959 118.175 69.97 118.308 70.0657C118.387 70.125 118.453 70.2033 118.502 70.2951C118.552 70.4079 118.576 70.5334 118.572 70.6597C118.572 70.6691 118.572 70.6785 118.572 70.6879C118.576 70.8405 118.538 70.9908 118.462 71.1169C118.351 71.291 118.198 71.424 118.02 71.4988C117.75 71.6156 117.462 71.669 117.174 71.6559H117.139C116.826 71.6667 116.515 71.5923 116.233 71.4391C116.093 71.3538 115.974 71.232 115.884 71.0839C115.715 70.8086 115.344 70.7419 115.09 70.9413L115.058 70.9665C114.828 71.1472 114.77 71.4717 114.923 71.7212L114.971 71.8005C115.165 72.1173 115.422 72.3771 115.723 72.5579L115.738 72.5657C116.04 72.731 116.363 72.8398 116.696 72.8879V73.6143C116.696 73.9213 116.945 74.1701 117.251 74.1701C117.558 74.1701 117.807 73.9213 117.807 73.6143V72.8596C118.018 72.8178 118.225 72.7514 118.424 72.6616C118.799 72.5 119.125 72.2189 119.361 71.8523C119.549 71.5359 119.659 71.1681 119.679 70.7872C119.699 70.4064 119.629 70.0265 119.475 69.687L119.465 69.6713Z" fill="#262F63" />
    <path d="M126.698 69.6713C126.559 69.4095 126.369 69.1874 126.142 69.0223C125.921 68.8612 125.681 68.7363 125.429 68.6514C125.29 68.6027 125.122 68.5524 124.93 68.4943C124.776 68.4456 124.608 68.4 124.348 68.3372C124.078 68.2728 123.814 68.1846 123.557 68.0732C123.432 68.0152 123.32 67.9235 123.233 67.806C123.162 67.7011 123.127 67.5704 123.135 67.4383C123.135 67.4179 123.135 67.399 123.135 67.3786C123.14 67.2672 123.174 67.1601 123.233 67.0706C123.338 66.9272 123.475 66.8186 123.629 66.7563C123.884 66.6591 124.153 66.6154 124.421 66.6275C124.63 66.6275 124.837 66.6582 125.038 66.7186C125.172 66.7614 125.297 66.8306 125.409 66.9229C125.481 66.9807 125.541 67.0532 125.589 67.1366C125.75 67.4183 126.12 67.4978 126.382 67.3069L126.409 67.287C126.646 67.1147 126.715 66.7916 126.57 66.5372L126.524 66.4562C126.402 66.2405 126.245 66.0528 126.061 65.9031C125.845 65.7249 125.602 65.5913 125.344 65.5087C125.244 65.4766 125.142 65.4504 125.04 65.4301V64.6691C125.04 64.3621 124.791 64.1133 124.484 64.1133C124.177 64.1133 123.928 64.3621 123.928 64.6691V65.4034C123.705 65.4352 123.486 65.492 123.274 65.5731C122.926 65.7082 122.618 65.9478 122.383 66.2661L122.368 66.2865C122.154 66.5939 122.032 66.9704 122.02 67.3613C121.997 67.792 122.111 68.2178 122.341 68.5619L122.359 68.5886C122.572 68.8828 122.849 69.1097 123.162 69.247C123.473 69.38 123.793 69.485 124.118 69.5613C124.356 69.621 124.508 69.6618 124.644 69.7058H124.659C124.835 69.7561 124.984 69.8017 125.113 69.8457C125.264 69.8959 125.408 69.97 125.54 70.0657C125.619 70.125 125.685 70.2033 125.735 70.2951C125.785 70.4079 125.809 70.5334 125.804 70.6597C125.804 70.6691 125.804 70.6785 125.804 70.6879C125.809 70.8405 125.77 70.9908 125.694 71.1169C125.584 71.291 125.43 71.424 125.252 71.4988C124.983 71.6156 124.695 71.669 124.406 71.6559H124.371C124.058 71.6667 123.748 71.5923 123.465 71.4391C123.326 71.3538 123.206 71.232 123.117 71.0839C122.948 70.8086 122.577 70.7419 122.323 70.9413L122.291 70.9665C122.06 71.1472 122.002 71.4717 122.155 71.7212L122.204 71.8005C122.397 72.1173 122.655 72.3771 122.955 72.5579L122.971 72.5657C123.272 72.731 123.596 72.8398 123.928 72.8879V73.6143C123.928 73.9213 124.177 74.1701 124.484 74.1701C124.791 74.1701 125.04 73.9213 125.04 73.6143V72.8596C125.251 72.8178 125.458 72.7514 125.657 72.6616C126.032 72.5 126.357 72.2189 126.593 71.8523C126.782 71.5359 126.892 71.1681 126.912 70.7872C126.932 70.4064 126.861 70.0265 126.707 69.687L126.698 69.6713Z" fill="#262F63" />
    <path d="M112.237 69.6703C112.098 69.4085 111.908 69.1865 111.681 69.0213C111.46 68.8602 111.22 68.7353 110.968 68.6505C110.829 68.6017 110.661 68.5515 110.469 68.4933C110.315 68.4446 110.147 68.399 109.887 68.3362C109.617 68.2719 109.353 68.1836 109.096 68.0722C108.971 68.0142 108.859 67.9225 108.772 67.805C108.701 67.7001 108.666 67.5694 108.674 67.4373C108.674 67.4169 108.674 67.3981 108.674 67.3776C108.679 67.2663 108.713 67.1591 108.772 67.0696C108.877 66.9262 109.014 66.8176 109.168 66.7554C109.423 66.6581 109.692 66.6144 109.96 66.6265C110.169 66.6265 110.376 66.6572 110.577 66.7177C110.711 66.7604 110.836 66.8296 110.948 66.9219C111.02 66.9798 111.08 67.0523 111.128 67.1356C111.289 67.4174 111.659 67.4968 111.921 67.3059L111.948 67.2861C112.185 67.1137 112.255 66.7907 112.109 66.5362L112.063 66.4552C111.941 66.2395 111.784 66.0519 111.6 65.9021C111.384 65.7239 111.141 65.5904 110.883 65.5077C110.783 65.4757 110.681 65.4494 110.579 65.4291V64.6682C110.579 64.3612 110.33 64.1123 110.023 64.1123C109.716 64.1123 109.467 64.3612 109.467 64.6682V65.4024C109.245 65.4342 109.025 65.4911 108.813 65.5721C108.465 65.7072 108.158 65.9468 107.922 66.2651L107.907 66.2855C107.693 66.5929 107.571 66.9694 107.559 67.3603C107.536 67.791 107.65 68.2169 107.88 68.5609L107.898 68.5876C108.111 68.8819 108.388 69.1087 108.701 69.246C109.012 69.379 109.332 69.4841 109.658 69.5603C109.895 69.62 110.047 69.6608 110.183 69.7048H110.198C110.375 69.7551 110.523 69.8007 110.652 69.8447C110.803 69.8949 110.947 69.969 111.079 70.0647C111.158 70.124 111.225 70.2024 111.274 70.2941C111.324 70.407 111.348 70.5324 111.343 70.6587C111.343 70.6681 111.343 70.6775 111.343 70.687C111.348 70.8395 111.309 70.9898 111.233 71.1159C111.123 71.2901 110.969 71.423 110.791 71.4978C110.522 71.6146 110.234 71.6681 109.945 71.6549H109.91C109.597 71.6657 109.287 71.5913 109.004 71.4381C108.865 71.3528 108.745 71.231 108.656 71.0829C108.487 70.8076 108.116 70.741 107.862 70.9403L107.83 70.9656C107.599 71.1462 107.541 71.4707 107.694 71.7202L107.743 71.7995C107.936 72.1164 108.194 72.3761 108.494 72.5569L108.51 72.5648C108.811 72.73 109.135 72.8388 109.467 72.8869V73.6133C109.467 73.9203 109.716 74.1691 110.023 74.1691C110.33 74.1691 110.579 73.9203 110.579 73.6133V72.8586C110.79 72.8168 110.997 72.7505 111.196 72.6606C111.571 72.499 111.896 72.2179 112.132 71.8514C112.321 71.5349 112.431 71.1671 112.451 70.7863C112.471 70.4054 112.4 70.0255 112.246 69.686L112.237 69.6703Z" fill="#262F63" />
    <rect x="103.34" y="78.8843" width="14.4567" height="11.6282" fill="#4FA39A" />
    <rect x="103.34" y="93.3413" width="14.4567" height="11.6282" fill="#4FA39A" />
    <rect x="103.34" y="107.798" width="14.4567" height="11.6282" fill="#4FA39A" />
    <rect x="103.34" y="122.253" width="14.4567" height="11.6282" fill="#4FA39A" />
    <rect x="103.34" y="136.711" width="31.4276" height="11.6282" fill="#4FA39A" />
    <rect x="119.994" y="78.8843" width="14.4567" height="11.6282" fill="#4FA39A" />
    <rect x="119.994" y="93.3394" width="14.4567" height="11.6282" fill="#4FA39A" />
    <rect x="119.994" y="107.797" width="14.4567" height="11.6282" fill="#4FA39A" />
    <rect x="119.994" y="122.253" width="14.4567" height="11.6282" fill="#4FA39A" />
    <rect x="136.967" y="78.8843" width="14.1424" height="11.6282" fill="#4FA39A" />
    <rect x="136.967" y="93.3413" width="14.1424" height="11.6282" fill="#4FA39A" />
    <rect x="136.967" y="107.798" width="14.1424" height="11.6282" fill="#4FA39A" />
    <rect x="136.967" y="122.253" width="14.1424" height="11.6282" fill="#4FA39A" />
    <rect x="136.967" y="136.711" width="14.1424" height="11.6282" fill="#4FA39A" />
    <rect x="153.311" y="78.8843" width="14.4567" height="11.6282" fill="#4FA39A" />
    <rect x="153.311" y="93.3394" width="14.4567" height="11.6282" fill="#4FA39A" />
    <rect x="153.311" y="107.797" width="14.4567" height="11.6282" fill="#4FA39A" />
    <rect x="153.311" y="122.253" width="14.4567" height="26.0849" fill="#4FA39A" />
    <defs>
        <linearGradient id="paint0_linear_13705_25297" x1="83.1744" y1="29.117" x2="82.6011" y2="153.052" gradientUnits="userSpaceOnUse">
            <stop stop-color="#F3FAFC" />
            <stop offset="1" stop-color="#DDE5FC" />
        </linearGradient>
        <linearGradient id="paint1_linear_13705_25297" x1="101.158" y1="73.8367" x2="100.981" y2="98.6829" gradientUnits="userSpaceOnUse">
            <stop stop-color="#F3FAFC" />
            <stop offset="1" stop-color="#DDE5FC" />
        </linearGradient>
        <linearGradient id="paint2_linear_13705_25297" x1="115.77" y1="73.8367" x2="115.589" y2="98.6828" gradientUnits="userSpaceOnUse">
            <stop stop-color="#F3FAFC" />
            <stop offset="1" stop-color="#DDE5FC" />
        </linearGradient>
        <linearGradient id="paint3_linear_13705_25297" x1="95.5847" y1="60.1961" x2="99.5859" y2="20.226" gradientUnits="userSpaceOnUse">
            <stop stop-color="#E8A341" />
            <stop offset="0.98" stop-color="#F3BF75" />
        </linearGradient>
        <linearGradient id="paint4_linear_13705_25297" x1="33.8142" y1="135.769" x2="34.11" y2="130.229" gradientUnits="userSpaceOnUse">
            <stop stop-color="#E8A341" />
            <stop offset="0.98" stop-color="#F3BF75" />
        </linearGradient>
        <linearGradient id="paint5_linear_13705_25297" x1="32.242" y1="140.483" x2="32.5378" y2="134.944" gradientUnits="userSpaceOnUse">
            <stop stop-color="#E8A341" />
            <stop offset="0.98" stop-color="#F3BF75" />
        </linearGradient>
        <linearGradient id="paint6_linear_13705_25297" x1="33.8142" y1="145.197" x2="34.11" y2="139.657" gradientUnits="userSpaceOnUse">
            <stop stop-color="#E8A341" />
            <stop offset="0.98" stop-color="#F3BF75" />
        </linearGradient>
        <linearGradient id="paint7_linear_13705_25297" x1="135.507" y1="142.7" x2="135.507" y2="64.4512" gradientUnits="userSpaceOnUse">
            <stop stop-color="#74C0B8" />
            <stop offset="1" stop-color="#4EA399" />
        </linearGradient>
    </defs>
</svg>